# xmcd
#
# Track frame offsets:
#	150
#	11590
#	28827
#	41442
#	54715
#	66107
#	78902
#	95750
#	107452
#	118610
#	131120
#	143050
#	159682
#	173470
#	185332
#	197032
#	212100
#	224025
#
# Disc length: 3171
#
# Revision: 4
# Processed by: cddbd v1.5.1PL0 Copyright (c) Steve Scherf et al.
# Submitted via: ExactAudioCopy v0.90b4
# Normalized: r2:DSETVAR1,TDELIM( - ),TSWAP
#
DISCID=040c6112
DTITLE=Various Artist - By Request (Country's All-Time Best-Loved Songs and Stars - Disc 3
DYEAR=2002
DGENRE=Country
TTITLE0=Willie Nelson - On The Road Again
TTITLE1=C.W. McCall - Convoy
TTITLE2=Hank Snow - I've Been Everywhere
TTITLE3=Larry Gatlin and The Gatlin Brothers Band - Houston (Means I'm One Day Closer To You)
TTITLE4=Billy Grammer - Gotta Travel On
TTITLE5=Emmylou Harris - I'm Moving On
TTITLE6=Ricky Van Shelton - Backroads
TTITLE7=Patsy Cline - Walkin' After Midnight
TTITLE8=Roger Miller - King Of The Road
TTITLE9=Dolly Parton - 9 To 5
TTITLE10=Tennessee Ernie Ford - Sixteen Tons
TTITLE11=Charlie Rich - Life's Little Ups And Downs
TTITLE12=Jimmy Dean - Big Bad John
TTITLE13=Frankie Laine - Mule Train
TTITLE14=Joe Stampley - Roll On By Mama
TTITLE15=Kathy Mattea - Eighteen Wheels And A Dozen Roses
TTITLE16=Johnny Paycheck - Take This Job And Shove It
TTITLE17=Johnny Cash - Oney
EXTD=A461355\nA61358\nSSFLM03600-3
EXTT0=
EXTT1=
EXTT2=
EXTT3=
EXTT4=
EXTT5=
EXTT6=
EXTT7=
EXTT8=
EXTT9=
EXTT10=
EXTT11=
EXTT12=
EXTT13=
EXTT14=
EXTT15=
EXTT16=
EXTT17=
PLAYORDER=
